<svg width="876" height="63" viewBox="0 0 876 63" fill="none" xmlns="http://www.w3.org/2000/svg">
<g filter="url(#filter0_dd_1_155)">
<rect x="2" y="1" width="872" height="48" rx="2" fill="white"/>
<g clip-path="url(#clip0_1_155)">
<path d="M30.5322 30.0332C31.9297 30.0332 33.2393 29.6113 34.3291 28.8906L38.1787 32.749C38.4336 32.9951 38.7588 33.1182 39.1104 33.1182C39.8398 33.1182 40.376 32.5469 40.376 31.8262C40.376 31.4922 40.2617 31.167 40.0156 30.9209L36.1924 27.0801C36.9834 25.9551 37.4492 24.5928 37.4492 23.1162C37.4492 19.3105 34.3379 16.1992 30.5322 16.1992C26.7354 16.1992 23.6152 19.3105 23.6152 23.1162C23.6152 26.9219 26.7266 30.0332 30.5322 30.0332ZM30.5322 28.1875C27.7461 28.1875 25.4609 25.9023 25.4609 23.1162C25.4609 20.3301 27.7461 18.0449 30.5322 18.0449C33.3184 18.0449 35.6035 20.3301 35.6035 23.1162C35.6035 25.9023 33.3184 28.1875 30.5322 28.1875Z" fill="#3C3C43" fill-opacity="0.6"/>
</g>
<path d="M77.8442 27.9453C77.8442 27.6631 77.8 27.4141 77.7114 27.1982C77.6284 26.9769 77.479 26.7777 77.2632 26.6006C77.0529 26.4235 76.7596 26.2547 76.3833 26.0942C76.0125 25.9338 75.5422 25.7705 74.9722 25.6045C74.3745 25.4274 73.835 25.231 73.3535 25.0151C72.8721 24.7938 72.4598 24.542 72.1167 24.2598C71.7736 23.9775 71.5107 23.6538 71.3281 23.2886C71.1455 22.9233 71.0542 22.5055 71.0542 22.0352C71.0542 21.5648 71.151 21.1304 71.3447 20.7319C71.5384 20.3335 71.8151 19.9876 72.1748 19.6943C72.54 19.3955 72.9744 19.1631 73.478 18.9971C73.9816 18.8311 74.5433 18.748 75.1631 18.748C76.0706 18.748 76.8398 18.9224 77.4707 19.271C78.1071 19.6141 78.5913 20.0651 78.9233 20.624C79.2554 21.1774 79.4214 21.7695 79.4214 22.4004H77.8276C77.8276 21.9466 77.7308 21.5454 77.5371 21.1968C77.3434 20.8426 77.0501 20.5659 76.6572 20.3667C76.2643 20.1619 75.7663 20.0596 75.1631 20.0596C74.5931 20.0596 74.1227 20.1453 73.752 20.3169C73.3812 20.4884 73.1045 20.7209 72.9219 21.0142C72.7448 21.3075 72.6562 21.6423 72.6562 22.0186C72.6562 22.2731 72.7088 22.5055 72.814 22.7158C72.9246 22.9206 73.0934 23.1115 73.3203 23.2886C73.5527 23.4657 73.846 23.6289 74.2002 23.7783C74.5599 23.9277 74.9888 24.0716 75.4868 24.21C76.173 24.4036 76.7651 24.6195 77.2632 24.8574C77.7612 25.0954 78.1707 25.3638 78.4917 25.6626C78.8182 25.9559 79.0589 26.2907 79.2139 26.667C79.3743 27.0378 79.4546 27.4583 79.4546 27.9287C79.4546 28.4212 79.355 28.8667 79.1558 29.2651C78.9565 29.6636 78.6715 30.0039 78.3008 30.2861C77.93 30.5684 77.4845 30.7869 76.9644 30.9419C76.4497 31.0913 75.8742 31.166 75.2378 31.166C74.6789 31.166 74.1283 31.0885 73.5859 30.9336C73.0492 30.7786 72.5594 30.5462 72.1167 30.2363C71.6795 29.9264 71.3281 29.5446 71.0625 29.0908C70.8024 28.6315 70.6724 28.1003 70.6724 27.4971H72.2661C72.2661 27.9121 72.3464 28.269 72.5068 28.5679C72.6673 28.8612 72.8859 29.1047 73.1626 29.2983C73.4448 29.492 73.763 29.6359 74.1172 29.73C74.4769 29.8185 74.8504 29.8628 75.2378 29.8628C75.7967 29.8628 76.2699 29.7853 76.6572 29.6304C77.0446 29.4754 77.3379 29.2541 77.5371 28.9663C77.7419 28.6785 77.8442 28.3382 77.8442 27.9453ZM85.4912 31.166C84.8659 31.166 84.2987 31.0609 83.7896 30.8506C83.286 30.6348 82.8516 30.3332 82.4863 29.9458C82.1266 29.5584 81.8499 29.0991 81.6562 28.5679C81.4626 28.0366 81.3657 27.4556 81.3657 26.8247V26.4761C81.3657 25.7456 81.4736 25.0954 81.6895 24.5254C81.9053 23.9499 82.1986 23.4629 82.5693 23.0645C82.9401 22.666 83.3607 22.3644 83.8311 22.1597C84.3014 21.9549 84.7884 21.8525 85.292 21.8525C85.9339 21.8525 86.4873 21.9632 86.9521 22.1846C87.4225 22.4059 87.8071 22.7158 88.106 23.1143C88.4048 23.5072 88.6261 23.972 88.77 24.5088C88.9139 25.04 88.9858 25.6211 88.9858 26.252V26.9409H82.2788V25.6875H87.4502V25.5713C87.4281 25.1729 87.3451 24.7855 87.2012 24.4092C87.0628 24.0329 86.8415 23.723 86.5371 23.4795C86.2327 23.236 85.8177 23.1143 85.292 23.1143C84.9434 23.1143 84.6224 23.189 84.3291 23.3384C84.0358 23.4823 83.784 23.6981 83.5737 23.9858C83.3634 24.2736 83.2002 24.625 83.084 25.04C82.9678 25.4551 82.9097 25.9338 82.9097 26.4761V26.8247C82.9097 27.2508 82.9678 27.652 83.084 28.0283C83.2057 28.3991 83.38 28.7256 83.6069 29.0078C83.8394 29.29 84.1188 29.5114 84.4453 29.6719C84.7773 29.8324 85.1536 29.9126 85.5742 29.9126C86.1165 29.9126 86.5758 29.8019 86.9521 29.5806C87.3285 29.3592 87.6577 29.0632 87.9399 28.6924L88.8696 29.4312C88.6759 29.7244 88.4297 30.0039 88.1309 30.2695C87.832 30.5352 87.464 30.751 87.0269 30.917C86.5952 31.083 86.0833 31.166 85.4912 31.166ZM96.5747 29.4644V24.8408C96.5747 24.4867 96.5028 24.1795 96.3589 23.9194C96.2205 23.6538 96.0103 23.4491 95.728 23.3052C95.4458 23.1613 95.0972 23.0894 94.6821 23.0894C94.2948 23.0894 93.9544 23.1558 93.6611 23.2886C93.3734 23.4214 93.1465 23.5957 92.9805 23.8115C92.82 24.0273 92.7397 24.2598 92.7397 24.5088H91.2041C91.2041 24.1878 91.2871 23.8696 91.4531 23.5542C91.6191 23.2388 91.8571 22.9538 92.167 22.6992C92.4824 22.4391 92.8587 22.2344 93.2959 22.085C93.7386 21.93 94.2311 21.8525 94.7734 21.8525C95.4264 21.8525 96.002 21.9632 96.5 22.1846C97.0036 22.4059 97.3965 22.7407 97.6787 23.189C97.9665 23.6317 98.1104 24.1878 98.1104 24.8574V29.041C98.1104 29.3398 98.1353 29.658 98.1851 29.9956C98.2404 30.3332 98.3206 30.6237 98.4258 30.8672V31H96.8237C96.7463 30.8229 96.6854 30.5877 96.6411 30.2944C96.5968 29.9956 96.5747 29.7189 96.5747 29.4644ZM96.8403 25.5547L96.8569 26.6338H95.3047C94.8675 26.6338 94.4774 26.6698 94.1343 26.7417C93.7912 26.8081 93.5034 26.9105 93.271 27.0488C93.0386 27.1872 92.8615 27.3615 92.7397 27.5718C92.618 27.7765 92.5571 28.0173 92.5571 28.2939C92.5571 28.5762 92.6208 28.8335 92.748 29.0659C92.8753 29.2983 93.0662 29.4837 93.3208 29.6221C93.5809 29.7549 93.8991 29.8213 94.2754 29.8213C94.7458 29.8213 95.1608 29.7217 95.5205 29.5225C95.8802 29.3232 96.1652 29.0798 96.3755 28.792C96.5913 28.5042 96.7075 28.2248 96.7241 27.9536L97.3799 28.6924C97.3411 28.9248 97.236 29.1821 97.0645 29.4644C96.8929 29.7466 96.6632 30.0177 96.3755 30.2778C96.0933 30.5324 95.7557 30.7454 95.3628 30.917C94.9754 31.083 94.5382 31.166 94.0513 31.166C93.4425 31.166 92.9085 31.047 92.4492 30.8091C91.9954 30.5711 91.6413 30.2529 91.3867 29.8545C91.1377 29.4505 91.0132 28.9995 91.0132 28.5015C91.0132 28.02 91.1073 27.5967 91.2954 27.2314C91.4836 26.8607 91.7547 26.5535 92.1089 26.3101C92.4631 26.061 92.8892 25.8729 93.3872 25.7456C93.8853 25.6183 94.4414 25.5547 95.0557 25.5547H96.8403ZM102.562 23.4297V31H101.026V22.0186H102.52L102.562 23.4297ZM105.367 21.9688L105.359 23.3965C105.232 23.3688 105.11 23.3522 104.994 23.3467C104.883 23.3356 104.756 23.3301 104.612 23.3301C104.258 23.3301 103.945 23.3854 103.674 23.4961C103.403 23.6068 103.173 23.7617 102.985 23.9609C102.797 24.1602 102.647 24.3981 102.537 24.6748C102.431 24.946 102.362 25.2448 102.329 25.5713L101.897 25.8203C101.897 25.278 101.95 24.7689 102.055 24.293C102.166 23.8171 102.335 23.3965 102.562 23.0312C102.788 22.6605 103.076 22.3727 103.425 22.168C103.779 21.9577 104.2 21.8525 104.687 21.8525C104.797 21.8525 104.924 21.8664 105.068 21.894C105.212 21.9162 105.312 21.9411 105.367 21.9688ZM110.715 29.9043C111.08 29.9043 111.418 29.8296 111.728 29.6802C112.037 29.5308 112.292 29.326 112.491 29.0659C112.69 28.8003 112.804 28.4987 112.832 28.1611H114.292C114.265 28.6924 114.085 29.1877 113.753 29.647C113.426 30.1007 112.998 30.4688 112.466 30.751C111.935 31.0277 111.351 31.166 110.715 31.166C110.04 31.166 109.45 31.047 108.947 30.8091C108.449 30.5711 108.034 30.2446 107.702 29.8296C107.375 29.4146 107.129 28.9386 106.963 28.4019C106.802 27.8595 106.722 27.2868 106.722 26.6836V26.335C106.722 25.7318 106.802 25.1618 106.963 24.625C107.129 24.0827 107.375 23.604 107.702 23.189C108.034 22.7739 108.449 22.4474 108.947 22.2095C109.45 21.9715 110.04 21.8525 110.715 21.8525C111.418 21.8525 112.032 21.9964 112.558 22.2842C113.083 22.5664 113.496 22.9538 113.794 23.4463C114.099 23.9333 114.265 24.4867 114.292 25.1064H112.832C112.804 24.7357 112.699 24.4009 112.516 24.1021C112.339 23.8032 112.096 23.5653 111.786 23.3882C111.481 23.2056 111.124 23.1143 110.715 23.1143C110.244 23.1143 109.849 23.2083 109.528 23.3965C109.212 23.5791 108.961 23.8281 108.772 24.1436C108.59 24.4535 108.457 24.7993 108.374 25.1812C108.297 25.5575 108.258 25.9421 108.258 26.335V26.6836C108.258 27.0765 108.297 27.4639 108.374 27.8457C108.451 28.2275 108.582 28.5734 108.764 28.8833C108.952 29.1932 109.204 29.4422 109.52 29.6304C109.84 29.813 110.239 29.9043 110.715 29.9043ZM118.055 18.25V31H116.519V18.25H118.055ZM117.689 26.1689L117.05 26.144C117.056 25.5298 117.147 24.9626 117.324 24.4424C117.501 23.9167 117.75 23.4601 118.071 23.0728C118.392 22.6854 118.774 22.3866 119.217 22.1763C119.665 21.9604 120.16 21.8525 120.703 21.8525C121.145 21.8525 121.544 21.9134 121.898 22.0352C122.252 22.1514 122.554 22.3395 122.803 22.5996C123.057 22.8597 123.251 23.1973 123.384 23.6123C123.517 24.0218 123.583 24.5226 123.583 25.1147V31H122.039V25.0981C122.039 24.6278 121.97 24.2515 121.832 23.9692C121.693 23.6815 121.491 23.474 121.226 23.3467C120.96 23.2139 120.633 23.1475 120.246 23.1475C119.864 23.1475 119.516 23.2277 119.2 23.3882C118.89 23.5487 118.622 23.77 118.395 24.0522C118.174 24.3345 117.999 24.6582 117.872 25.0234C117.75 25.3831 117.689 25.765 117.689 26.1689Z" fill="#3C3C43" fill-opacity="0.6"/>
</g>
<defs>
<filter id="filter0_dd_1_155" x="0" y="0" width="876" height="66" filterUnits="userSpaceOnUse" color-interpolation-filters="sRGB">
<feFlood flood-opacity="0" result="BackgroundImageFix"/>
<feColorMatrix in="SourceAlpha" type="matrix" values="0 0 0 0 0 0 0 0 0 0 0 0 0 0 0 0 0 0 127 0" result="hardAlpha"/>
<feOffset dy="1"/>
<feGaussianBlur stdDeviation="1"/>
<feColorMatrix type="matrix" values="0 0 0 0 0 0 0 0 0 0 0 0 0 0 0 0 0 0 0.2 0"/>
<feBlend mode="normal" in2="BackgroundImageFix" result="effect1_dropShadow_1_155"/>
<feColorMatrix in="SourceAlpha" type="matrix" values="0 0 0 0 0 0 0 0 0 0 0 0 0 0 0 0 0 0 127 0" result="hardAlpha"/>
<feOffset dy="0.1"/>
<feGaussianBlur stdDeviation="0.15"/>
<feColorMatrix type="matrix" values="0 0 0 0 0 0 0 0 0 0 0 0 0 0 0 0 0 0 0.1 0"/>
<feBlend mode="normal" in2="effect1_dropShadow_1_155" result="effect2_dropShadow_1_155"/>
<feBlend mode="normal" in="SourceGraphic" in2="effect2_dropShadow_1_155" result="shape"/>
</filter>
<clipPath id="clip0_1_155">
<rect width="28" height="28" fill="white" transform="translate(18 11)"/>
</clipPath>
</defs>
</svg>
